<svg width="80" height="90" viewBox="0 0 80 90" fill="none" xmlns="http://www.w3.org/2000/svg">
<path d="M5.53667 0C8.83334 0.09401 12.1267 0.204229 15.4233 0.275547C20.92 0.39549 26.42 0.473292 31.9133 0.651587C32.24 0.661312 32.8133 1.39394 32.8167 1.79267C32.9 10.4999 32.9033 19.2072 32.9933 27.9145C33 28.5531 33.3733 29.3765 33.8633 29.7947C47.42 41.4098 61.0533 52.9374 74.5434 64.6205C76.1534 66.0145 76.9967 68.2351 78.2534 70.0375C78.6534 70.6112 79.3134 71.0132 79.7 71.5902C79.94 71.9533 80.0834 72.8286 79.9334 72.9129C77.5067 74.2971 77.5267 76.5371 77.59 78.8355C77.6 79.2407 77.2734 79.6427 77.1867 80.0609C76.9334 81.3122 76.6934 82.5667 76.5334 83.831C76.5134 83.9866 77.0334 84.1876 77.27 84.4015C77.6967 84.7841 78.4934 85.2736 78.43 85.5783C78.2934 86.2331 77.7834 87.2607 77.3 87.3353C70.66 88.3467 64.01 89.2933 57.33 90.0032C56.7633 90.0648 55.4533 88.3402 55.4267 87.4196C55.3467 84.6771 53.7933 83.0335 51.7933 81.5488C50.7333 80.7643 49.6667 79.9863 48.6 79.2083C48.4467 79.0981 48.2267 78.8614 48.1467 78.9003C45.9033 79.996 45.9533 78.1807 45.3933 76.965C45.2167 76.5825 44.4233 76.2291 43.94 76.2616C41.7933 76.4107 40.0233 76.1384 38.5967 74.2031C38.0067 73.4024 36.47 73.0944 35.3067 72.9031C33.3733 72.5822 31.35 72.6957 29.4533 72.2645C28.9067 72.1381 27.4467 71.7653 27.8533 70.1768C28.1733 68.9288 27.8733 67.5284 27.81 66.196C27.8 66.0112 27.59 65.6903 27.4433 65.6741C26.0367 65.5152 25.8667 64.828 25.8167 63.4957C25.7833 62.682 24.3333 61.9429 23.56 61.1324C22.7767 60.3155 22.0167 59.4727 21.2867 58.6136C20.3633 57.5276 19.3233 56.4935 18.6233 55.2811C18.0167 54.2308 17.65 52.9795 17.5133 51.7801C17.4567 51.2841 18.5533 50.7362 18.65 50.1398C18.81 49.1737 18.32 48.7264 17.1233 48.3438C15.9033 47.9548 14.6633 46.603 14.15 45.3841C13.51 43.8703 13.96 41.9025 13.2633 40.4373C12.81 39.481 11.15 39.0725 10.0433 38.395C9.9 38.3075 9.78334 38.113 9.74 37.9476C9.40334 36.6574 9.33 35.2343 8.69667 34.1062C8.04 32.9392 6.83333 32.0704 5.89333 31.0492C3.96667 28.9551 4.11 26.3974 4.14667 23.8299C4.16 22.7666 4.08667 21.5575 3.58667 20.6628C2.85667 19.3596 1.64667 18.3222 0.763333 17.0871C0.36 16.5231 0.243333 15.7645 0 15.0935V14.4192C0.666667 12.3575 2.61 10.8047 2.17333 8.25019C1.9 6.64878 2.44667 4.9339 2.46667 3.26766C2.48 2.18168 2.21667 1.09246 2.07667 0.00648345H5.54L5.53667 0Z" fill="black"/>
</svg>
